<?xml version="1.0" encoding="UTF-8" standalone="no"?>
<!-- Generator: Adobe Illustrator 22.1.0, SVG Export Plug-In . SVG Version: 6.00 Build 0)  -->

<svg
   xmlns:dc="http://purl.org/dc/elements/1.1/"
   xmlns:cc="http://creativecommons.org/ns#"
   xmlns:rdf="http://www.w3.org/1999/02/22-rdf-syntax-ns#"
   xmlns:svg="http://www.w3.org/2000/svg"
   xmlns="http://www.w3.org/2000/svg"
   xmlns:sodipodi="http://sodipodi.sourceforge.net/DTD/sodipodi-0.dtd"
   xmlns:inkscape="http://www.inkscape.org/namespaces/inkscape"
   version="1.1"
   id="Layer_1"
   x="0px"
   y="0px"
   viewBox="0 0 512.00001 511.99999"
   xml:space="preserve"
   sodipodi:docname="favicon.svg"
   width="512"
   height="512"
   inkscape:version="0.92.4 5da689c313, 2019-01-14"
   inkscape:export-filename="/home/nebulon/projects/meemo/meemo-app/frontend/favicon.png"
   inkscape:export-xdpi="96"
   inkscape:export-ydpi="96"><metadata
   id="metadata20"><rdf:RDF><cc:Work
       rdf:about=""><dc:format>image/svg+xml</dc:format><dc:type
         rdf:resource="http://purl.org/dc/dcmitype/StillImage" /><dc:title /></cc:Work></rdf:RDF></metadata><defs
   id="defs18" /><sodipodi:namedview
   pagecolor="#ffffff"
   bordercolor="#666666"
   borderopacity="1"
   objecttolerance="10"
   gridtolerance="10"
   guidetolerance="10"
   inkscape:pageopacity="0"
   inkscape:pageshadow="2"
   inkscape:window-width="2880"
   inkscape:window-height="1564"
   id="namedview16"
   showgrid="false"
   inkscape:zoom="1.5857199"
   inkscape:cx="26.961169"
   inkscape:cy="326.31443"
   inkscape:window-x="0"
   inkscape:window-y="56"
   inkscape:window-maximized="1"
   inkscape:current-layer="Layer_1" />
<style
   type="text/css"
   id="style2">
	.st0{fill:url(#SVGID_1_);}
</style>
<g
   id="g13"
   transform="matrix(3.0662756,0,0,3.0662756,-536.38302,-209.86334)">
	<g
   id="g11">
		
			<linearGradient
   id="SVGID_1_"
   gradientUnits="userSpaceOnUse"
   x1="189.93469"
   y1="151.9209"
   x2="290.70529"
   y2="151.9209"
   gradientTransform="translate(18.0858)">
			<stop
   offset="0"
   style="stop-color:#B840FF"
   id="stop4" />
			<stop
   offset="1"
   style="stop-color:#00C7FF"
   id="stop6" />
		</linearGradient>
		<path
   class="st0"
   d="m 259.2,73.8 c -27.4,0 -49.6,22.2 -49.6,49.6 0,27.4 22.2,49.6 49.6,49.6 27.4,0 49.6,-22.2 49.6,-49.6 0,-27.4 -22.2,-49.6 -49.6,-49.6 z m 0,90.5 c -12.9,0 -24.4,-6 -31.9,-15.3 l 10.4,4.7 c 0,0 0.1,0 0.1,0 1.1,0.5 2.4,0.6 3.6,0 L 274.3,139 c 2.2,-1 3.2,-3.6 2.2,-5.8 v 0 c -1,-2.2 -3.6,-3.2 -5.8,-2.2 l -31,14 -19.3,-8.6 c -1.1,-3.3 -1.8,-6.7 -2,-10.3 l 19.4,8.7 c 0,0 0.1,0 0.1,0 1.1,0.5 2.4,0.6 3.6,0 l 32.9,-14.7 c 2.2,-1 3.2,-3.6 2.2,-5.8 -1,-2.2 -3.6,-3.2 -5.8,-2.2 l -31.1,13.9 -20.2,-9.1 c -0.2,-0.1 -0.4,-0.1 -0.6,-0.2 0.5,-2.9 1.3,-5.8 2.4,-8.4 l 16.5,7.4 c 0,0 0.1,0 0.1,0 1.1,0.5 2.4,0.6 3.6,0 L 274.4,101 c 2.2,-1 3.2,-3.6 2.2,-5.8 C 275.6,93 273,92 270.8,93 l -31.1,14 -14.4,-6.5 c 7.3,-10.9 19.8,-18 33.9,-18 22.6,0 40.9,18.3 40.9,40.9 0,22.6 -18.3,40.9 -40.9,40.9 z m -27,4.3 -23.5,51.9 c -1.6,3.5 -0.2,7.5 3.1,9 3.3,1.5 7.3,-0.1 8.9,-3.6 L 244.2,174 c -2.1,-0.6 -4.2,-1.4 -6.2,-2.3 -2,-0.9 -4,-1.9 -5.8,-3.1 z"
   id="path9"
   inkscape:connector-curvature="0"
   style="fill:url(#SVGID_1_)" />
	</g>
</g>
</svg>