<?xml version="1.0" encoding="UTF-8" standalone="no"?>
<!-- Generator: Adobe Illustrator 22.1.0, SVG Export Plug-In . SVG Version: 6.00 Build 0)  -->

<svg
   xmlns:dc="http://purl.org/dc/elements/1.1/"
   xmlns:cc="http://creativecommons.org/ns#"
   xmlns:rdf="http://www.w3.org/1999/02/22-rdf-syntax-ns#"
   xmlns:svg="http://www.w3.org/2000/svg"
   xmlns="http://www.w3.org/2000/svg"
   xmlns:sodipodi="http://sodipodi.sourceforge.net/DTD/sodipodi-0.dtd"
   xmlns:inkscape="http://www.inkscape.org/namespaces/inkscape"
   version="1.1"
   id="Layer_1"
   x="0px"
   y="0px"
   viewBox="0 0 512.00001 511.99999"
   xml:space="preserve"
   sodipodi:docname="logo.svg"
   width="512"
   height="512"
   inkscape:version="0.92.4 5da689c313, 2019-01-14"
   inkscape:export-filename="/home/nebulon/projects/meemo/meemo-app/logo.png"
   inkscape:export-xdpi="96"
   inkscape:export-ydpi="96"><metadata
   id="metadata20"><rdf:RDF><cc:Work
       rdf:about=""><dc:format>image/svg+xml</dc:format><dc:type
         rdf:resource="http://purl.org/dc/dcmitype/StillImage" /><dc:title></dc:title></cc:Work></rdf:RDF></metadata><defs
   id="defs18" /><sodipodi:namedview
   pagecolor="#ffffff"
   bordercolor="#666666"
   borderopacity="1"
   objecttolerance="10"
   gridtolerance="10"
   guidetolerance="10"
   inkscape:pageopacity="0"
   inkscape:pageshadow="2"
   inkscape:window-width="2880"
   inkscape:window-height="1564"
   id="namedview16"
   showgrid="false"
   inkscape:zoom="1.5857199"
   inkscape:cx="169.48733"
   inkscape:cy="243.30401"
   inkscape:window-x="0"
   inkscape:window-y="56"
   inkscape:window-maximized="1"
   inkscape:current-layer="Layer_1" />
<style
   type="text/css"
   id="style2">
	.st0{fill:url(#SVGID_1_);}
</style>
<g
   id="g13"
   transform="matrix(2.5463791,0,0,2.5463791,-86.96055,-502.64129)">
	<g
   id="g11">
		
			<linearGradient
   id="SVGID_1_"
   gradientUnits="userSpaceOnUse"
   x1="57.0662"
   y1="674.49219"
   x2="246.748"
   y2="674.49219"
   gradientTransform="translate(-17.2101,-393.84)">
			<stop
   offset="0"
   style="stop-color:#B840FF"
   id="stop4" />
			<stop
   offset="1"
   style="stop-color:#00C7FF"
   id="stop6" />
		</linearGradient>
		<path
   class="st0"
   d="m 79.1,302.6 -8.3,-11.4 c 12.3,-2 21.6,-12.7 21.6,-25.5 0,-14.3 -11.6,-25.9 -25.9,-25.9 -14.3,0 -25.9,11.6 -25.9,25.9 0,12.8 9.3,23.4 21.5,25.5 v 29.6 h 6 v -23.2 l 10.2,13.9 h 1.2 L 90,297.6 v 23.2 h 6 v -32 H 89.1 Z M 66.5,287 c -6.7,0 -12.7,-3.1 -16.6,-8 l 5.4,2.4 c 0,0 0,0 0.1,0 0.6,0.3 1.2,0.3 1.9,0 l 17.1,-7.7 c 1.1,-0.5 1.7,-1.9 1.1,-3 -0.5,-1.1 -1.9,-1.7 -3,-1.1 l -16.2,7.3 -10.1,-4.5 c -0.6,-1.7 -0.9,-3.5 -1,-5.4 l 10.1,4.5 c 0,0 0,0 0.1,0 0.6,0.3 1.2,0.3 1.9,0 l 17.1,-7.7 c 1.1,-0.5 1.7,-1.9 1.1,-3 -0.5,-1.1 -1.9,-1.7 -3,-1.1 L 56.4,267 45.9,262.3 c -0.1,0 -0.2,-0.1 -0.3,-0.1 0.3,-1.5 0.7,-3 1.2,-4.4 l 8.6,3.9 c 0,0 0,0 0.1,0 0.6,0.3 1.2,0.3 1.9,0 L 74.5,254 c 1.1,-0.5 1.7,-1.9 1.1,-3 -0.5,-1.1 -1.9,-1.7 -3,-1.1 l -16.2,7.3 -7.5,-3.4 c 3.8,-5.7 10.3,-9.4 17.7,-9.4 11.8,0 21.3,9.5 21.3,21.3 0,11.8 -9.6,21.3 -21.4,21.3 z m 35,33.8 h 23.9 v -5.9 h -17.9 v -7.2 h 17.3 V 302 h -17.3 v -7.3 h 17.9 v -5.8 h -23.9 z m 28.5,0 h 23.9 v -5.9 H 136 v -7.2 h 17.3 V 302 H 136 v -7.3 h 17.9 v -5.8 H 130 Z m 45.6,-18.2 -10,-13.7 h -6.9 v 32 h 6 v -23.2 l 10.2,13.9 h 1.2 l 10.4,-13.9 v 23.2 h 6 v -32 h -6.9 z m 37.5,-14.4 c -11,0 -16.4,8.4 -16.4,16.8 0,8.4 5.2,16.5 16.4,16.5 11.2,0 16.3,-8.3 16.4,-16.5 0.1,-8.4 -5.4,-16.8 -16.4,-16.8 z m 0,27.8 c -7.5,0 -10.4,-5.6 -10.5,-10.9 -0.1,-5.4 3,-11.5 10.5,-11.5 7.5,0 10.5,6 10.5,11.4 -0.1,5.3 -2.9,11 -10.5,11 z M 52.5,289.3 40.2,316.4 c -0.8,1.8 -0.1,3.9 1.6,4.7 1.7,0.8 3.8,-0.1 4.6,-1.9 l 12.3,-27.1 c -1.1,-0.3 -2.2,-0.7 -3.2,-1.2 -1.1,-0.5 -2.1,-1 -3,-1.6 z"
   id="path9"
   inkscape:connector-curvature="0"
   style="fill:url(#SVGID_1_)" />
	</g>
</g>
</svg>